<svg width="0" height="0" viewBox="0 0 64 64" fill="currentColor" xmlns="http://www.w3.org/2000/svg">
<rect width="64" height="64" rx="32" fill="#555555" fill-opacity="0.3"/>
<path d="M44.0367 23.3116C41.8349 21.4498 39.1927 20.5189 36.4037 20.3638L35.9633 20.8292C38.4587 21.4498 40.6606 22.691 42.7156 24.3977C40.2202 23.0013 37.4312 22.0704 34.4954 21.7601C33.6147 21.605 32.8807 21.605 32 21.605C31.1193 21.605 30.3853 21.605 29.5046 21.7601C26.5688 22.0704 23.7798 23.0013 21.2844 24.3977C23.3394 22.691 25.5413 21.4498 28.0367 20.8292L27.5963 20.3638C24.8073 20.5189 22.1651 21.4498 19.9633 23.3116C17.4679 28.2765 16.1468 33.862 16 39.6026C18.2018 42.085 21.2844 43.6365 24.5138 43.6365C24.5138 43.6365 25.5413 42.3953 26.2752 41.3092C24.367 40.8438 22.6055 39.7577 21.4312 38.051C22.4587 38.6716 23.4862 39.2923 24.5138 39.7577C25.8349 40.3783 27.156 40.6886 28.4771 40.9989C29.6514 41.1541 30.8257 41.3092 32 41.3092C33.1743 41.3092 34.3486 41.1541 35.5229 40.9989C36.844 40.6886 38.1651 40.3783 39.4862 39.7577C40.5138 39.2923 41.5413 38.6716 42.5688 38.051C41.3945 39.7577 39.633 40.8438 37.7248 41.3092C38.4587 42.3953 39.4862 43.6365 39.4862 43.6365C42.7156 43.6365 45.7982 42.085 48 39.6026C47.8532 33.862 46.5321 28.2765 44.0367 23.3116ZM27.156 36.8098C25.6881 36.8098 24.367 35.4135 24.367 33.7068C24.367 32.0001 25.6881 30.6038 27.156 30.6038C28.6239 30.6038 29.945 32.0001 29.945 33.7068C29.945 35.4135 28.6239 36.8098 27.156 36.8098ZM36.844 36.8098C35.3761 36.8098 34.055 35.4135 34.055 33.7068C34.055 32.0001 35.3761 30.6038 36.844 30.6038C38.3119 30.6038 39.633 32.0001 39.633 33.7068C39.633 35.4135 38.3119 36.8098 36.844 36.8098Z" fill="currentColor"/>
</svg>
