<svg width="0" height="0" viewBox="0 0 25 24" fill="none" xmlns="http://www.w3.org/2000/svg">
<path d="M6.64751 0H14.6777L21.4753 7.09195V20.8779C21.4753 22.6023 20.0776 24 18.3531 24H6.64751C4.92305 24 3.52539 22.6023 3.52539 20.8779V3.12212C3.52539 1.39769 4.92305 0 6.64751 0V0Z" fill="white"/>
<path opacity="0.302" fill-rule="evenodd" clip-rule="evenodd" d="M14.668 0V7.0337H21.4752L14.668 0Z" fill="#9D9D9D"/>
<path d="M6.42383 17.1248V13.1517H7.83122C8.11269 13.1517 8.37478 13.1938 8.61743 13.2715C8.86008 13.3523 9.08008 13.4688 9.27746 13.6241C9.47481 13.7794 9.63013 13.9865 9.74336 14.2453C9.85659 14.5041 9.91484 14.8018 9.91484 15.1383C9.91484 15.4747 9.85659 15.7724 9.74336 16.0312C9.63013 16.29 9.47481 16.4971 9.27746 16.6524C9.08011 16.8077 8.86008 16.9242 8.61743 17.0051C8.37478 17.0827 8.11272 17.1248 7.83122 17.1248H6.42383ZM7.41709 16.261H7.7115C7.87004 16.261 8.01887 16.2415 8.1515 16.2059C8.28739 16.1671 8.41032 16.1057 8.52679 16.0248C8.64327 15.9439 8.73384 15.8274 8.79856 15.6753C8.86651 15.5265 8.89884 15.3453 8.89884 15.1383C8.89884 14.9312 8.86648 14.75 8.79856 14.598C8.73384 14.4491 8.64327 14.3327 8.52679 14.2518C8.41032 14.1677 8.28739 14.1094 8.1515 14.0706C8.01887 14.035 7.87004 14.0156 7.7115 14.0156H7.41709V16.261ZM12.3252 17.1701C11.7266 17.1701 11.2316 16.976 10.8401 16.591C10.4487 16.2059 10.2545 15.7206 10.2545 15.1383C10.2545 14.5559 10.4487 14.0706 10.8401 13.6856C11.2316 13.3006 11.7266 13.1065 12.3252 13.1065C12.914 13.1065 13.4025 13.3006 13.794 13.6856C14.1823 14.0707 14.3764 14.556 14.3764 15.1383C14.3764 15.7206 14.1823 16.206 13.794 16.591C13.4025 16.976 12.914 17.1701 12.3252 17.1701ZM11.5616 15.9762C11.759 16.1962 12.0113 16.3063 12.3187 16.3063C12.626 16.3063 12.8752 16.1962 13.0725 15.9762C13.2699 15.753 13.3669 15.4747 13.3669 15.1383C13.3669 14.8018 13.2699 14.5235 13.0725 14.3003C12.8752 14.0803 12.626 13.9703 12.3187 13.9703C12.0113 13.9703 11.759 14.0803 11.5616 14.3003C11.3643 14.5235 11.264 14.8018 11.264 15.1383C11.264 15.4747 11.3643 15.753 11.5616 15.9762ZM16.7382 17.1701C16.1591 17.1701 15.677 16.9889 15.2952 16.633C14.9102 16.2739 14.7194 15.7756 14.7194 15.1383C14.7194 14.5041 14.9135 14.0059 15.3017 13.6468C15.6932 13.2876 16.1688 13.1064 16.7382 13.1064C17.2527 13.1064 17.6732 13.2326 18.0065 13.4882C18.3365 13.7406 18.5274 14.0771 18.5759 14.4976L17.573 14.7015C17.5309 14.4815 17.4306 14.3035 17.2753 14.1709C17.12 14.0382 16.9388 13.9703 16.7318 13.9703C16.447 13.9703 16.2108 14.0706 16.02 14.2744C15.8291 14.4815 15.732 14.7662 15.732 15.1382C15.732 15.5103 15.8291 15.795 16.0167 15.9989C16.2076 16.2059 16.4438 16.3062 16.7317 16.3062C16.9388 16.3062 17.1167 16.248 17.2623 16.1315C17.4079 16.0151 17.4985 15.8598 17.5373 15.6656L18.563 15.8986C18.4691 16.2998 18.262 16.6104 17.9385 16.8336C17.6182 17.0569 17.2171 17.1701 16.7382 17.1701Z" fill="#9D9D9D"/>
</svg>
