<svg width="0" height="0" viewBox="0 0 22 21" fill="currentColor" xmlns="http://www.w3.org/2000/svg">
<path d="M21 19.2507H20V7.9807C20 7.3607 19.72 6.7807 19.23 6.4007L18 5.4407L17.98 2.9907C17.98 2.4407 17.53 2.0007 16.98 2.0007H13.57L12.23 0.960703C11.51 0.390703 10.49 0.390703 9.77 0.960703L2.77 6.4007C2.28 6.7807 2 7.3607 2 7.9707L1.95 19.2507H1C0.59 19.2507 0.25 19.5907 0.25 20.0007C0.25 20.4107 0.59 20.7507 1 20.7507H21C21.41 20.7507 21.75 20.4107 21.75 20.0007C21.75 19.5907 21.41 19.2507 21 19.2507ZM5.5 10.7507V9.2507C5.5 8.7007 5.95 8.2507 6.5 8.2507H8.5C9.05 8.2507 9.5 8.7007 9.5 9.2507V10.7507C9.5 11.3007 9.05 11.7507 8.5 11.7507H6.5C5.95 11.7507 5.5 11.3007 5.5 10.7507ZM13.5 19.2507H8.5V16.5007C8.5 15.6707 9.17 15.0007 10 15.0007H12C12.83 15.0007 13.5 15.6707 13.5 16.5007V19.2507ZM16.5 10.7507C16.5 11.3007 16.05 11.7507 15.5 11.7507H13.5C12.95 11.7507 12.5 11.3007 12.5 10.7507V9.2507C12.5 8.7007 12.95 8.2507 13.5 8.2507H15.5C16.05 8.2507 16.5 8.7007 16.5 9.2507V10.7507Z" fill="currentColor"/>
</svg>
