<svg width="0" height="0" viewBox="0 0 64 64" fill="currentColor" xmlns="http://www.w3.org/2000/svg">
<rect width="64" height="64" rx="32" fill="#555555" fill-opacity="0.3"/>
<path d="M43.2 23.2C43.2 24.5255 42.1255 25.6 40.8 25.6C39.4745 25.6 38.4 24.5255 38.4 23.2C38.4 21.8745 39.4745 20.8 40.8 20.8C42.1255 20.8 43.2 21.8745 43.2 23.2Z" fill="currentColor"/>
<path fill-rule="evenodd" clip-rule="evenodd" d="M32 40C36.4183 40 40 36.4183 40 32C40 27.5817 36.4183 24 32 24C27.5817 24 24 27.5817 24 32C24 36.4183 27.5817 40 32 40ZM32 36.8C34.651 36.8 36.8 34.651 36.8 32C36.8 29.349 34.651 27.2 32 27.2C29.349 27.2 27.2 29.349 27.2 32C27.2 34.651 29.349 36.8 32 36.8Z" fill="currentColor"/>
<path fill-rule="evenodd" clip-rule="evenodd" d="M16 31.36C16 25.9835 16 23.2952 17.0463 21.2417C17.9667 19.4353 19.4353 17.9667 21.2417 17.0463C23.2952 16 25.9835 16 31.36 16H32.64C38.0165 16 40.7048 16 42.7583 17.0463C44.5647 17.9667 46.0333 19.4353 46.9537 21.2417C48 23.2952 48 25.9835 48 31.36V32.64C48 38.0165 48 40.7048 46.9537 42.7583C46.0333 44.5647 44.5647 46.0333 42.7583 46.9537C40.7048 48 38.0165 48 32.64 48H31.36C25.9835 48 23.2952 48 21.2417 46.9537C19.4353 46.0333 17.9667 44.5647 17.0463 42.7583C16 40.7048 16 38.0165 16 32.64V31.36ZM31.36 19.2H32.64C35.3811 19.2 37.2444 19.2025 38.6847 19.3202C40.0876 19.4348 40.8051 19.6426 41.3055 19.8976C42.5098 20.5111 43.4889 21.4902 44.1024 22.6945C44.3575 23.1949 44.5652 23.9124 44.6798 25.3153C44.7975 26.7556 44.8 28.6189 44.8 31.36V32.64C44.8 35.3811 44.7975 37.2444 44.6798 38.6847C44.5652 40.0876 44.3575 40.8051 44.1024 41.3055C43.4889 42.5098 42.5098 43.4889 41.3055 44.1024C40.8051 44.3575 40.0876 44.5652 38.6847 44.6798C37.2444 44.7975 35.3811 44.8 32.64 44.8H31.36C28.6189 44.8 26.7556 44.7975 25.3153 44.6798C23.9124 44.5652 23.1949 44.3575 22.6945 44.1024C21.4902 43.4889 20.5111 42.5098 19.8976 41.3055C19.6426 40.8051 19.4348 40.0876 19.3202 38.6847C19.2025 37.2444 19.2 35.3811 19.2 32.64V31.36C19.2 28.6189 19.2025 26.7556 19.3202 25.3153C19.4348 23.9124 19.6426 23.1949 19.8976 22.6945C20.5111 21.4902 21.4902 20.5111 22.6945 19.8976C23.1949 19.6426 23.9124 19.4348 25.3153 19.3202C26.7556 19.2025 28.6189 19.2 31.36 19.2Z" fill="currentColor"/>
</svg>
