<svg width="0" height="0" viewBox="0 0 128 114" fill="currentColor" xmlns="http://www.w3.org/2000/svg">
<path d="M0.676758 0.8125C0.676758 0.8125 9.25969 47.1336 55.4119 58.2029C101.564 69.2722 96.4633 60.532 127.097 76.0617C127.097 76.0617 132.588 39.2785 75.99 31.3011C27.6193 24.4942 7.96119 8.46378 0.676758 0.8125Z" fill="#E2104C"/>
<path d="M89.2252 113.398C97.9217 113.402 106.363 110.46 113.173 105.051C119.983 99.642 124.76 92.0858 126.725 83.6141C126.725 83.6141 102.507 70.699 80.8984 70.3263C81.0613 73.596 82.1143 76.7591 83.9437 79.474C85.7731 82.1889 88.3094 84.3524 91.2787 85.731C94.248 87.1096 97.5375 87.6508 100.792 87.2962C104.046 86.9416 107.142 85.7046 109.745 83.719C107.493 89.0226 103.278 93.2505 97.981 95.5186C92.6841 97.7868 86.7156 97.9197 81.323 95.8896C75.9304 93.8595 71.5313 89.8235 69.0453 84.6254C66.5592 79.4272 66.1787 73.4693 67.9833 67.9972C63.8374 67.1761 59.1441 66.1455 53.7812 64.8586C53.2455 64.7305 52.704 64.5908 52.1683 64.4452C50.561 70.1676 50.3004 76.1844 51.407 82.0244C52.5136 87.8643 54.9573 93.3687 58.5467 98.1064C62.136 102.844 66.7736 106.686 72.0961 109.332C77.4185 111.978 83.2813 113.356 89.2252 113.357V113.398Z" fill="currentColor"/>
</svg>
