<svg width="0" height="0" viewBox="0 0 24 24" fill="currentColor" xmlns="http://www.w3.org/2000/svg">
<path d="M19.9597 8.96039C19.2897 8.22039 18.2797 7.79039 16.8797 7.64039V6.88039C16.8797 5.51039 16.2997 4.19039 15.2797 3.27039C14.2497 2.33039 12.9097 1.89039 11.5197 2.02039C9.12975 2.25039 7.11975 4.56039 7.11975 7.06039V7.64039C5.71975 7.79039 4.70975 8.22039 4.03975 8.96039C3.06975 10.0404 3.09975 11.4804 3.20975 12.4804L3.90975 18.0504C4.11975 20.0004 4.90975 22.0004 9.20975 22.0004H14.7897C19.0897 22.0004 19.8797 20.0004 20.0897 18.0604L20.7897 12.4704C20.8997 11.4804 20.9297 10.0404 19.9597 8.96039ZM11.6597 3.41039C12.6597 3.32039 13.6097 3.63039 14.3497 4.30039C15.0797 4.96039 15.4897 5.90039 15.4897 6.88039V7.58039H8.50975V7.06039C8.50975 5.28039 9.97975 3.57039 11.6597 3.41039ZM11.9997 18.5804C9.90975 18.5804 8.20975 16.8804 8.20975 14.7904C8.20975 12.7004 9.90975 11.0004 11.9997 11.0004C14.0897 11.0004 15.7897 12.7004 15.7897 14.7904C15.7897 16.8804 14.0897 18.5804 11.9997 18.5804Z" fill="currentColor"/>
<path d="M13.5991 15.3102L13.0691 14.7802L13.5691 14.2802C13.8591 13.9902 13.8591 13.5102 13.5691 13.2202C13.2791 12.9302 12.7991 12.9302 12.5091 13.2202L12.0091 13.7202L11.4791 13.1902C11.1891 12.9002 10.7091 12.9002 10.4191 13.1902C10.1291 13.4802 10.1291 13.9602 10.4191 14.2502L10.9491 14.7802L10.3991 15.3302C10.1091 15.6202 10.1091 16.1002 10.3991 16.3902C10.5491 16.5402 10.7391 16.6102 10.9291 16.6102C11.1191 16.6102 11.3091 16.5402 11.4591 16.3902L12.0091 15.8402L12.5391 16.3702C12.6891 16.5202 12.8791 16.5902 13.0691 16.5902C13.2591 16.5902 13.4491 16.5202 13.5991 16.3702C13.8891 16.0802 13.8891 15.6102 13.5991 15.3102Z" fill="currentColor"/>
</svg>