<svg width="0" height="0" viewBox="0 0 64 64" fill="currentColor" xmlns="http://www.w3.org/2000/svg">
<rect width="64" height="64" rx="32" fill="#555555" fill-opacity="0.3"/>
<path d="M27.7887 44C24.5537 44 21.5382 43.0591 19 41.4356C21.155 41.5751 24.9581 41.2411 27.3236 38.9848C23.7651 38.8215 22.1603 36.0923 21.9509 34.926C22.2533 35.0426 23.6953 35.1826 24.5093 34.856C20.4159 33.8296 19.7879 30.2373 19.9275 29.141C20.695 29.6775 21.9975 29.8641 22.5091 29.8174C18.6948 27.0882 20.067 22.9828 20.7415 22.0963C23.4788 25.8887 27.5812 28.0186 32.6564 28.137C32.5607 27.7174 32.5102 27.2804 32.5102 26.8316C32.5102 23.6109 35.1134 21 38.3247 21C40.0025 21 41.5144 21.7128 42.5757 22.8528C43.6969 22.5901 45.3843 21.9751 46.2092 21.4432C45.7934 22.9361 44.4989 24.1815 43.7159 24.6431C43.7224 24.6588 43.7095 24.6273 43.7159 24.6431C44.4037 24.539 46.2648 24.1814 47 23.6826C46.6364 24.5213 45.264 25.9157 44.1377 26.6964C44.3473 35.9381 37.2765 44 27.7887 44Z" fill="currentColor"/>
</svg>
