<svg width="0" height="0" viewBox="0 0 20 20" fill="currentColor" xmlns="http://www.w3.org/2000/svg">
<path d="M17.51 3.85L11.57 0.42C10.6 -0.14 9.40004 -0.14 8.42004 0.42L2.49004 3.85C1.52004 4.41 0.920044 5.45 0.920044 6.58V13.42C0.920044 14.54 1.52004 15.58 2.49004 16.15L8.43004 19.58C9.40004 20.14 10.6 20.14 11.58 19.58L17.52 16.15C18.49 15.59 19.09 14.55 19.09 13.42V6.58C19.08 5.45 18.48 4.42 17.51 3.85ZM10 5.34C11.29 5.34 12.33 6.38 12.33 7.67C12.33 8.96 11.29 10 10 10C8.71004 10 7.67004 8.96 7.67004 7.67C7.67004 6.39 8.71004 5.34 10 5.34ZM12.68 14.66H7.32004C6.51004 14.66 6.04004 13.76 6.49004 13.09C7.17004 12.08 8.49004 11.4 10 11.4C11.51 11.4 12.83 12.08 13.51 13.09C13.96 13.75 13.48 14.66 12.68 14.66Z" fill="currentColor"/>
</svg>
